# xmcd CD database file
# Copyright (C) 1997 Ti Kan
#
# Track frame offsets:
#  183
#  18855
#  36285
#  50455
#  70995
#  86880
#  105010
#  121240
#  137280
#  154983
#  171138
#  179145
#  196070
#  207950
#  231218
#  244960
#  261908
#
# Disc length: 3642 seconds
#
# Revision: 1
# Processed by: cddbd v1.4b41PL1 Copyright (c) Steve Scherf et al.
# Submitted via: CDWizzard Release:4.30
#
DISCID=e80e3811
DTITLE=Compile - Kolla Aymara Aima
DYEAR=1900
DGENRE=
TTITLE0=Caru Llactaman-Ecuator
TTITLE1=Blanca Palomita- Peru
TTITLE2=Machaq Chuyma -Bolivia
TTITLE3=Corazon Entristecida -Ecuador
TTITLE4=Sonko Waira -Wayra
TTITLE5=Huayno -Bolivia
TTITLE6=Q'Anantatawi -Bolivia
TTITLE7=Villa Manta -Ecuador
TTITLE8=Amuyt Asxa Pxanani -Bolivia
TTITLE9=Pedrecita -Ecuador
TTITLE10=Carnaval Des Piras -Peru
TTITLE11=Anoranza -Peru
TTITLE12=Suma Panquara Passakale- Bolivia
TTITLE13=Perdona Huangui -Ecuador
TTITLE14=Aima -Bolivia
TTITLE15=Yuyasctalla -Ecuador
TTITLE16=Porque Te Vas -Bolivia
EXTD=
EXTT0=
EXTT1=
EXTT2=
EXTT3=
EXTT4=
EXTT5=
EXTT6=
EXTT7=
EXTT8=
EXTT9=
EXTT10=
EXTT11=
EXTT12=
EXTT13=
EXTT14=
EXTT15=
EXTT16=
PLAYORDER=
